<?xml version="1.0" encoding="UTF-8" standalone="no"?><!DOCTYPE svg PUBLIC "-//W3C//DTD SVG 1.1//EN" "http://www.w3.org/Graphics/SVG/1.1/DTD/svg11.dtd"><svg width="100%" height="100%" viewBox="0 0 2560 1440" version="1.1" xmlns="http://www.w3.org/2000/svg" xmlns:xlink="http://www.w3.org/1999/xlink" xml:space="preserve" xmlns:serif="http://www.serif.com/" style="fill-rule:evenodd;clip-rule:evenodd;stroke-linecap:round;stroke-linejoin:round;stroke-miterlimit:1.5;"><g id="ucl"><path d="M1470.16,502.971c0,-105.025 -85.14,-190.165 -190.165,-190.165c-105.025,0 -190.165,85.14 -190.165,190.165l380.33,0Z" style="fill:none;stroke:#000;stroke-width:19.05px;"/><path d="M1470.16,559.555c0,-5.105 -4.144,-9.249 -9.248,-9.249l-361.834,0c-5.104,0 -9.248,4.144 -9.248,9.249l0,27.744c0,5.104 4.144,9.248 9.248,9.248l361.834,0c5.104,0 9.248,-4.144 9.248,-9.248l0,-27.744Z" style="fill:none;stroke:#000;stroke-width:19.05px;"/><path d="M1707.15,1201.81c0,-8.664 -7.035,-15.699 -15.699,-15.699l-822.898,0c-8.664,0 -15.699,7.035 -15.699,15.699l0,47.098c0,8.664 7.035,15.699 15.699,15.699l822.898,0c8.664,0 15.699,-7.035 15.699,-15.699l0,-47.098Z" style="fill:none;stroke:#000;stroke-width:19.05px;"/><path d="M1505.88,632.964l201.268,78.495l-854.296,0l201.347,-78.495" style="fill:none;stroke:#000;stroke-width:19.05px;"/><path d="M875.31,816.364c-12.395,0 -22.458,10.063 -22.458,22.458l0,277.498c0,12.395 10.063,22.458 22.458,22.458l67.372,0c12.395,0 22.458,-10.063 22.458,-22.458l0,-277.498c0,-12.395 -10.063,-22.458 -22.458,-22.458l-67.372,0Z" style="fill:none;stroke:#000;stroke-width:19.05px;"/><path d="M1060.81,816.364c-12.395,0 -22.458,10.063 -22.458,22.458l0,277.498c0,12.395 10.063,22.458 22.458,22.458l67.372,0c12.395,0 22.458,-10.063 22.458,-22.458l0,-277.498c0,-12.395 -10.063,-22.458 -22.458,-22.458l-67.372,0Z" style="fill:none;stroke:#000;stroke-width:19.05px;"/><path d="M1246.31,816.364c-12.395,0 -22.458,10.063 -22.458,22.458l0,277.498c0,12.395 10.063,22.458 22.458,22.458l67.372,0c12.395,0 22.458,-10.063 22.458,-22.458l0,-277.498c0,-12.395 -10.063,-22.458 -22.458,-22.458l-67.372,0Z" style="fill:none;stroke:#000;stroke-width:19.05px;"/><path d="M1431.82,816.364c-12.395,0 -22.458,10.063 -22.458,22.458l0,277.498c0,12.395 10.063,22.458 22.458,22.458l67.372,0c12.395,0 22.458,-10.063 22.458,-22.458l0,-277.498c0,-12.395 -10.063,-22.458 -22.458,-22.458l-67.372,0Z" style="fill:none;stroke:#000;stroke-width:19.05px;"/><path d="M1617.32,816.364c-12.395,0 -22.458,10.063 -22.458,22.458l0,277.498c0,12.395 10.063,22.458 22.458,22.458l67.372,0c12.395,0 22.458,-10.063 22.458,-22.458l0,-277.498c0,-12.395 -10.063,-22.458 -22.458,-22.458l-67.372,0Z" style="fill:none;stroke:#000;stroke-width:19.05px;"/><path d="M1414.49,141.876l-78.811,0c-30.729,0 -55.677,24.948 -55.677,55.676l0,77.417" style="fill:none;stroke:#000;stroke-width:19.1px;"/><path d="M1314.91,243.101l43.897,0c30.728,0 55.676,-24.948 55.676,-55.677l0,-17.752" style="fill:none;stroke:#000;stroke-width:19.1px;"/><path d="M852.852,744.3l0,29.418c0,5.412 4.394,9.805 9.806,9.805l834.684,0c5.412,0 9.806,-4.393 9.806,-9.805l0,-29.418" style="fill:none;stroke:#000;stroke-width:19.1px;"/></g><g id="network"><path d="M313.75,1006.09c0,-7.87 -6.39,-14.26 -14.26,-14.26l-42.782,0c-7.871,0 -14.261,6.39 -14.261,14.26l0,42.782c0,7.871 6.39,14.261 14.261,14.261l42.782,0c7.87,0 14.26,-6.39 14.26,-14.261l0,-42.782Z" style="fill:none;stroke:#000;stroke-width:19.1px;"/><path d="M359.479,1027.49l104.859,0c0,0 76.41,4.919 75.747,-57.042c-0.662,-61.961 0,-104.682 0,-104.682" style="fill:none;stroke:#000;stroke-width:19.1px;"/><path d="M575.737,758.561c0,-7.871 -6.39,-14.261 -14.261,-14.261l-42.781,0c-7.871,0 -14.261,6.39 -14.261,14.261l0,42.782c0,7.87 6.39,14.26 14.261,14.26l42.781,0c7.871,0 14.261,-6.39 14.261,-14.26l0,-42.782Z" style="fill:none;stroke:#000;stroke-width:19.1px;"/><path d="M2284.96,687.258c0,-7.871 -6.39,-14.261 -14.26,-14.261l-42.782,0c-7.871,0 -14.261,6.39 -14.261,14.261l0,42.782c0,7.87 6.39,14.26 14.261,14.26l42.782,0c7.87,0 14.26,-6.39 14.26,-14.26l0,-42.782Z" style="fill:none;stroke:#000;stroke-width:19.1px;"/><path d="M2184.23,708.649l-201.927,0c0,0 -62.552,3.438 -62.552,-68.798c0,-72.237 0,-70.198 0,-70.198c0,0 4.66,-73.402 -89.713,-74.567c-94.374,-1.165 -300.572,0 -300.572,0" style="fill:none;stroke:#000;stroke-width:19.1px;"/><path d="M2452.85,1172.72c0,-7.871 -6.39,-14.261 -14.26,-14.261l-42.782,0c-7.871,0 -14.261,6.39 -14.261,14.261l0,42.782c0,7.87 6.39,14.26 14.261,14.26l42.782,0c7.87,0 14.26,-6.39 14.26,-14.26l0,-42.782Z" style="fill:none;stroke:#000;stroke-width:19.1px;"/><path d="M2354.73,1194.11l-304.28,0c0,0 -68.383,7.18 -68.146,-56.458c0.346,-93.164 0,-81.242 0,-81.242" style="fill:none;stroke:#000;stroke-width:19.1px;"/><path d="M2017.96,970.443c0,-7.871 -6.39,-14.261 -14.261,-14.261l-42.781,0c-7.871,0 -14.261,6.39 -14.261,14.261l0,42.782c0,7.87 6.39,14.26 14.261,14.26l42.781,0c7.871,0 14.261,-6.39 14.261,-14.26l0,-42.782Z" style="fill:none;stroke:#000;stroke-width:19.1px;"/><path d="M2045.22,991.834l144.182,0c0,0 59.234,4.317 59.912,-55.336c0.691,-60.846 0,-164.643 0,-164.643" style="fill:none;stroke:#000;stroke-width:19.1px;"/><g><path d="M759.963,606.57c0,0 1.429,-35.023 46.969,-34.588c50.868,0.485 94.507,0 94.507,0c0,0 32.223,-0.756 31.883,22.999c-0.339,23.755 0,35.294 0,35.294" style="fill:none;stroke:#000;stroke-width:19.1px;"/><path d="M617.53,779.952l96.764,0c0,0 45.064,-0.824 45.488,-59.952c0.425,-59.128 0,-235.188 0,-235.188c0,0 -3.204,-41.397 62.547,-40.867c65.751,0.531 215.282,0 215.282,0" style="fill:none;stroke:#000;stroke-width:19.1px;"/></g></g><g id="dash"><path d="M561.476,650.885l-102.541,0" style="fill:none;stroke:#000;stroke-width:11px;"/><path d="M458.935,765.777l-56.637,0" style="fill:none;stroke:#000;stroke-width:11px;"/><path d="M292.26,1134.73l-113.274,0" style="fill:none;stroke:#000;stroke-width:11px;"/><path d="M274.46,945.397l-142.401,0" style="fill:none;stroke:#000;stroke-width:11px;"/><path d="M648.264,846.687l-43.692,0" style="fill:none;stroke:#000;stroke-width:11px;"/><path d="M2095.64,623.961l151.217,0" style="fill:none;stroke:#000;stroke-width:11px;"/><path d="M2340.77,731.26l73.85,0" style="fill:none;stroke:#000;stroke-width:11px;"/><path d="M2022.82,782.233l103.443,0" style="fill:none;stroke:#000;stroke-width:11px;"/><path d="M1906.91,913.763l188.72,0" style="fill:none;stroke:#000;stroke-width:11px;"/><path d="M1818.08,875.897l88.839,0" style="fill:none;stroke:#000;stroke-width:11px;"/><path d="M2074.54,1071.05l96.706,0" style="fill:none;stroke:#000;stroke-width:11px;"/><path d="M2222.95,1071.05l56.799,0" style="fill:none;stroke:#000;stroke-width:11px;"/><path d="M2342.81,1282.5l133.987,0" style="fill:none;stroke:#000;stroke-width:11px;"/><path d="M2444.03,1331.47l65.537,0" style="fill:none;stroke:#000;stroke-width:11px;"/><path d="M2278.32,623.961l62.449,0" style="fill:none;stroke:#000;stroke-width:11px;"/><path d="M518.695,689.722l-185.98,0" style="fill:none;stroke:#000;stroke-width:11px;"/></g></svg>