<?xml version="1.0"?>
<svg xmlns="http://www.w3.org/2000/svg" xmlns:xlink="http://www.w3.org/1999/xlink" version="1.1" id="Capa_1" x="0px" y="0px" viewBox="0 0 512 512" style="enable-background:new 0 0 512 512;" xml:space="preserve" width="512px" height="512px"><g><g>
	<g>
		<g>
			<path d="M435.143,129.356c-6.796-6.795-17.463-7.797-25.407-2.384c-29.926,20.398-180.03,122.969-196.162,139.1     c-23.394,23.395-23.394,61.459,0,84.854c11.697,11.696,27.063,17.545,42.427,17.545c15.364,0,30.729-5.849,42.427-17.545     c16.131-16.132,118.701-166.236,139.1-196.162C442.939,146.821,441.938,136.153,435.143,129.356z M270.142,322.641     c-7.797,7.799-20.486,7.799-28.283,0c-7.798-7.797-7.799-20.482-0.004-28.28c6.268-6.194,48.885-36.588,101.319-73.035     C306.728,273.76,276.334,316.375,270.142,322.641z" data-original="#000000" class="active-path" data-old_color="#F9F6F6" fill="#FFFFFF"/>
			<path d="M92.231,401.523l-24.69,12.044C49.475,381.325,40,345.338,40,308.499c0-26.991,4.977-52.842,14.06-76.683l28.291,13.57     c2.79,1.338,5.735,1.972,8.636,1.972c7.453,0,14.608-4.185,18.047-11.355c4.776-9.959,0.576-21.906-9.384-26.683l-27.932-13.398     c34.717-56.62,94.784-96.095,164.283-102.505v30.081c0,11.046,8.954,20,20,20c11.046,0,20-8.954,20-20V93.402     c23.828,2.169,46.884,8.237,68.771,18.117c10.065,4.545,21.912,0.066,26.457-9.999c4.545-10.068,0.068-21.913-10-26.458     C328.063,60.091,292.659,52.499,256,52.499c-68.38,0-132.667,26.628-181.02,74.98C26.629,175.832,0,240.119,0,308.499     c0,50.53,14.998,99.674,43.373,142.115c3.822,5.715,10.141,8.886,16.639,8.886c2.954,0,5.946-0.655,8.757-2.026l41-20     c9.928-4.843,14.05-16.816,9.207-26.744C114.133,400.803,102.159,396.682,92.231,401.523z" data-original="#000000" class="active-path" data-old_color="#F9F6F6" fill="#FFFFFF"/>
			<path d="M489.436,203.271c-4.544-10.067-16.387-14.547-26.458-10c-10.067,4.545-14.544,16.39-9.999,26.457     C465.601,247.686,472,277.553,472,308.499c0,36.894-9.506,72.939-27.625,105.218l-25.777-12.275     c-9.971-4.748-21.906-0.515-26.656,9.459c-4.749,9.972-0.514,21.907,9.459,26.656l42,20c2.763,1.315,5.692,1.944,8.588,1.944     c6.5,0,12.82-3.175,16.637-8.886C497.002,408.173,512,359.029,512,308.499C512,271.84,504.408,236.436,489.436,203.271z" data-original="#000000" class="active-path" data-old_color="#F9F6F6" fill="#FFFFFF"/>
		</g>
	</g>
</g></g> </svg>
