<?xml version="1.0"?>
<svg xmlns="http://www.w3.org/2000/svg" height="512px" viewBox="0 0 496 496" width="512px"><g><path d="m248 112c-4.40625 0-8-3.585938-8-8h-16c0 10.414062 6.710938 19.214844 16 22.527344v17.472656h16v-17.472656c9.289062-3.3125 16-12.113282 16-22.527344 0-13.230469-10.769531-24-24-24-4.40625 0-8-3.585938-8-8s3.59375-8 8-8 8 3.585938 8 8h16c0-10.414062-6.710938-19.214844-16-22.527344v-17.472656h-16v17.472656c-9.289062 3.3125-16 12.113282-16 22.527344 0 13.230469 10.769531 24 24 24 4.40625 0 8 3.585938 8 8s-3.59375 8-8 8zm0 0" data-original="#000000" class="active-path" data-old_color="#000000" fill="#FFFFFF"/><path d="m478.871094 433.121094c5.617187-6.890625 9.128906-15.5625 9.128906-25.121094 0-16.34375-9.929688-30.289062-24-36.488281v-116.574219c18.28125-4.121094 32-20.425781 32-39.9375 0-5.777344-1.183594-11.375-3.535156-16.648438l-28.464844-64.046874v-14.304688c0-13.230469-10.769531-24-24-24h-104.40625c.238281-2.640625.40625-5.296875.40625-8 0-48.519531-39.480469-88-88-88s-88 39.480469-88 88c0 2.703125.167969 5.359375.40625 8h-104.40625c-13.230469 0-24 10.769531-24 24v14.304688l-28.464844 64.046874c-2.351562 5.273438-3.535156 10.871094-3.535156 16.648438 0 19.511719 13.71875 35.816406 32 39.9375v116.574219c-14.070312 6.199219-24 20.144531-24 36.488281 0 9.558594 3.511719 18.230469 9.128906 25.121094-9.871094 2.976562-17.128906 12.046875-17.128906 22.878906v40h224v-32h48v32h224v-40c0-10.832031-7.257812-19.902344-17.128906-22.878906zm-6.871094-25.121094c0 13.230469-10.769531 24-24 24h-128c-13.230469 0-24-10.769531-24-24 0-16.007812 15.640625-28.726562 32.449219-22.367188l6.839843 2.582032 3.183594-6.582032c5.605469-11.59375 19.527344-17.167968 31.941406-11.128906l6.554688 3.183594 3.785156-6.222656c5.894532-9.679688 16.078125-15.464844 27.246094-15.464844 15.183594 0 28.367188 10.792969 31.359375 25.65625l1.335937 6.617188 6.746094-.195313c.421875-.015625.839844-.0625.558594-.078125 13.230469 0 24 10.769531 24 24zm-198.527344 40h-50.953125c-2.550781-7.144531-8.351562-12.679688-15.65625-14.878906 5.625-6.890625 9.136719-15.5625 9.136719-25.121094 0-13.015625-6.34375-24.488281-16-31.792969v-88.207031h96v88.207031c-9.65625 7.3125-16 18.785157-16 31.792969 0 9.558594 3.511719 18.230469 9.128906 25.121094-7.304687 2.199218-13.105468 7.734375-15.65625 14.878906zm-225.472656-192.152344c12.769531-.550781 24.175781-6.917968 31.367188-16.863281 7.25 10.261719 19.144531 17.015625 32.632812 17.015625h4.222656c13.9375 0 26.511719-7.121094 33.792969-18.742188 6.96875 11.199219 19.289063 18.742188 33.433594 18.742188 13.136719 0 24.933593-6.496094 32.160156-16.726562 7.261719 10.085937 19.039063 16.726562 32.390625 16.726562s25.128906-6.640625 32.398438-16.726562c7.21875 10.230468 19.027343 16.726562 32.152343 16.726562 14.136719 0 26.464844-7.542969 33.433594-18.742188 7.28125 11.621094 19.863281 18.742188 33.792969 18.742188h4.222656c13.488281 0 25.382812-6.753906 32.632812-17.015625 7.191407 9.945313 18.597657 16.3125 31.367188 16.863281v101.894532c-8.679688-13.167969-23.503906-21.742188-40-21.742188-14.527344 0-27.9375 6.480469-37 17.609375-16.34375-4.839844-33.910156 1.710937-43.449219 15.160156-2.527343-.511719-5.046875-.769531-7.550781-.769531-2.734375 0-5.414062.28125-8 .808594v-96.808594h-128v96.808594c-2.585938-.527344-5.265625-.808594-8-.808594-2.503906 0-5.023438.257812-7.550781.769531-9.539063-13.449219-27.097657-20.015625-43.449219-15.160156-9.0625-11.128906-22.472656-17.609375-37-17.609375-16.496094 0-31.320312 8.574219-40 21.742188zm103.160156-111.847656-6.976562 69.734375-6.496094 13c-4.085938 8.175781-12.320312 13.265625-21.464844 13.265625h-4.222656c-13.230469 0-24-10.769531-24-24h-.160156l14.695312-72zm56.839844 22.289062v48.71875l-1.808594 7.230469c-2.605468 10.457031-11.96875 17.761719-22.742187 17.761719-12.929688 0-23.449219-10.511719-23.488281-23.199219l7.277343-72.800781h12.929688c7.625 9.207031 17.113281 16.785156 27.832031 22.289062zm107.832031-22.289062h12.929688l7.238281 72.550781c0 12.9375-10.511719 23.449219-23.449219 23.449219-10.78125 0-20.136719-7.304688-22.742187-17.769531l-1.808594-7.222657v-48.71875c10.71875-5.503906 20.207031-13.082031 27.832031-22.289062zm77.609375 0 14.542969 72.734375c-.382813 12.898437-10.992187 23.265625-23.984375 23.265625h-4.222656c-9.152344 0-17.378906-5.089844-21.464844-13.265625l-6.617188-13.222656-6.863281-69.511719zm-169.441406 28.59375c7.640625 2.167969 15.671875 3.40625 24 3.40625s16.359375-1.238281 24-3.40625v43.40625c0 13.230469-10.769531 24-24 24s-24-10.769531-24-24zm256 42.40625c0 13.785156-11.214844 25-25 25h-5.238281c-11.496094 0-21.464844-7.792969-24.25-18.929688l-15.71875-77.070312h41.007812l27.046875 60.847656c1.425782 3.222656 2.152344 6.640625 2.152344 10.152344zm-40-103c4.40625 0 8 3.585938 8 8v8h-121.710938c2.597657-5.070312 4.71875-10.414062 6.304688-16zm-192-96c39.695312 0 72 32.296875 72 72s-32.304688 72-72 72-72-32.296875-72-72 32.304688-72 72-72zm-200 104c0-4.414062 3.59375-8 8-8h107.40625c1.585938 5.585938 3.707031 10.929688 6.304688 16h-121.710938zm-32 95c0-3.511719.726562-6.929688 2.152344-10.152344l27.046875-60.847656h41.046875l-14.007813 70.0625-1.75 7.007812c-2.785156 11.136719-12.761719 18.929688-24.25 18.929688h-5.238281c-13.785156 0-25-11.214844-25-25zm31.304688 168.960938 8.007812.3125 1.335938-6.617188c2.984374-14.863281 16.167968-25.65625 31.351562-25.65625 11.160156 0 21.34375 5.785156 27.246094 15.472656l3.785156 6.222656 6.542969-3.183593c12.410156-6.054688 26.335937-.480469 31.945312 11.128906l3.183594 6.582031 6.839844-2.582031c16.832031-6.359375 32.457031 6.351563 32.457031 22.359375 0 13.230469-10.769531 24-24 24h-128c-13.230469 0-24-10.769531-24-24s10.769531-24 23.304688-24.039062zm160.695312 96.039062h-192v-24c0-4.414062 3.59375-8 8-8h176c4.40625 0 8 3.585938 8 8zm272 0h-192v-24c0-4.414062 3.59375-8 8-8h176c4.40625 0 8 3.585938 8 8zm0 0" data-original="#000000" class="active-path" data-old_color="#000000" fill="#FFFFFF"/></g> </svg>
