<?xml version="1.0" encoding="UTF-8" standalone="no"?>
<svg
   xmlns:dc="http://purl.org/dc/elements/1.1/"
   xmlns:cc="http://creativecommons.org/ns#"
   xmlns:rdf="http://www.w3.org/1999/02/22-rdf-syntax-ns#"
   xmlns:svg="http://www.w3.org/2000/svg"
   xmlns="http://www.w3.org/2000/svg"
   xmlns:sodipodi="http://sodipodi.sourceforge.net/DTD/sodipodi-0.dtd"
   xmlns:inkscape="http://www.inkscape.org/namespaces/inkscape"
   id="a811ccc3-bd41-4105-81cf-f3cac7d18e76"
   data-name="Layer 1"
   width="1106"
   height="794.90955"
   viewBox="0 0 1106 794.90955"
   version="1.1"
   sodipodi:docname="warning.svg"
   inkscape:version="0.92.3 (2405546, 2018-03-11)">
  <metadata
     id="metadata1103">
    <rdf:RDF>
      <cc:Work
         rdf:about="">
        <dc:format>image/svg+xml</dc:format>
        <dc:type
           rdf:resource="http://purl.org/dc/dcmitype/StillImage" />
      </cc:Work>
    </rdf:RDF>
  </metadata>
  <defs
     id="defs1101" />
  <sodipodi:namedview
     pagecolor="#ffffff"
     bordercolor="#666666"
     borderopacity="1"
     objecttolerance="10"
     gridtolerance="10"
     guidetolerance="10"
     inkscape:pageopacity="0"
     inkscape:pageshadow="2"
     inkscape:window-width="1765"
     inkscape:window-height="1051"
     id="namedview1099"
     showgrid="false"
     inkscape:zoom="1.051692"
     inkscape:cx="553"
     inkscape:cy="397.45477"
     inkscape:window-x="146"
     inkscape:window-y="-9"
     inkscape:window-maximized="1"
     inkscape:current-layer="a811ccc3-bd41-4105-81cf-f3cac7d18e76" />
  <title
     id="title960">notify</title>
  <circle
     cx="-651"
     cy="443.90955"
     r="342"
     id="circle962"
     transform="scale(-1,1)"
     style="fill:#f2f2f2" />
  <path
     d="m 191.28713,192.07986 35.67953,42.30243 c 1.9249,18.22024 4.65542,38.58023 8.52527,59.93929 l -58.62058,-60.64622 -0.27448,1.05921 c 3.33576,-16.2975 8.38156,-31.08319 15.017,-43.65754 z"
     id="path964"
     inkscape:connector-curvature="0"
     style="fill:#f50057" />
  <path
     d="m 226.63473,231.18541 -34.56221,-40.97673 c 7.5436,-14.02366 17.09669,-25.22594 28.5123,-32.57721 0.59394,-0.38244 1.19189,-0.74313 1.79023,-1.10129 -0.008,4.98126 0.13749,34.21831 4.25968,74.65523 z"
     id="path966"
     inkscape:connector-curvature="0"
     style="fill:#f50057" />
  <path
     d="m 182.36216,362.32715 -0.0739,1.22739 q -2.99973,-11.279 -5.12826,-22.58661 l 85.0105,54.88751 0.056,-0.55946 q 2.41207,6.56777 4.95841,12.89086 z"
     id="path968"
     inkscape:connector-curvature="0"
     style="fill:#f50057" />
  <path
     d="m 172.23208,295.63525 -0.1725,1.16285 a 258.753,258.753 0 0 1 4.31412,-60.92614 l 59.73809,61.80128 q 5.57764,30.00367 13.13392,57.11249 z"
     id="path970"
     inkscape:connector-curvature="0"
     style="fill:#f50057" />
  <path
     d="m 322.95672,192.2334 a 216.0522,216.0522 0 0 1 22.80842,37.0946 l -98.45895,112.39326 c -4.0539,-15.76407 -7.32225,-31.05072 -9.95257,-45.3068 l 86.12159,-103.06769 z"
     id="path972"
     inkscape:connector-curvature="0"
     style="fill:#f50057" />
  <path
     d="m 352.72089,244.76028 -0.50061,-1.127 L 251.111,355.8141 q -1.63224,-5.76159 -3.12307,-11.46128 l 98.82232,-112.80805 -0.50773,-1.1227 q 3.35313,6.9231 6.41837,14.33821 z"
     id="path974"
     inkscape:connector-curvature="0"
     style="fill:#f50057" />
  <path
     d="m 177.00941,338.31686 -0.12,1.19985 a 309.002,309.002 0 0 1 -4.77151,-41.37849 l 78.055,59.95055 q 5.14131,18.04785 11.13863,34.65818 z"
     id="path976"
     inkscape:connector-curvature="0"
     style="fill:#f50057" />
  <path
     d="m 289.67757,454.9226 c 13.228,23.02286 28.21712,42.48581 44.81816,58.15865 -18.36228,-7.40615 -92.33871,-40.03342 -130.67759,-98.87266 z"
     id="path978"
     inkscape:connector-curvature="0"
     style="fill:#f50057" />
  <path
     d="m 368.10166,301.86132 a 298.92372,298.92372 0 0 1 1.72063,39.97807 l -0.61623,-1.19674 -79.29882,111.24246 a 371.62843,371.62843 0 0 1 -19.45991,-40.06245 z"
     id="path980"
     inkscape:connector-curvature="0"
     style="fill:#f50057" />
  <path
     d="m 228.09534,231.06101 c -4.44888,-43.75109 -4.21059,-74.23726 -4.20605,-74.6747 l -0.75563,-0.30678 c 17.85267,-10.34935 37.58085,-9.98891 56.79654,-0.79076 z"
     id="path982"
     inkscape:connector-curvature="0"
     style="fill:#f50057" />
  <path
     d="m 268.51814,411.4413 c 0.53624,1.30309 1.06826,2.6143 1.613,3.90142 a 369.2199,369.2199 0 0 0 17.58542,36.124 l -85.04538,-40.3282 -0.0426,1.20514 A 146.38018,146.38018 0 0 1 186.80488,378.959 q -2.234,-6.93649 -4.12082,-13.9236 z"
     id="path984"
     inkscape:connector-curvature="0"
     style="fill:#f50057" />
  <path
     d="m 236.83535,293.56863 c -3.81106,-21.11918 -6.50255,-41.24012 -8.40217,-59.24847 l 53.02368,-77.51124 -0.55935,-1.05834 c 14.43947,7.1411 28.56314,19.27219 41.358,35.58973 z"
     id="path986"
     inkscape:connector-curvature="0"
     style="fill:#f50057" />
  <path
     d="m 291.07313,453.93657 78.71836,-110.4285 C 367.89442,423.55554 340.56357,508.98441 338.80056,514.41722 319.89621,497.48794 304.164,476.6746 291.07313,453.93657 Z"
     id="path988"
     inkscape:connector-curvature="0"
     style="fill:#f50057" />
  <path
     d="m 269.53416,409.45695 -0.0813,-0.0439 a 501.54006,501.54006 0 0 1 -17.6078,-51.03519 l 101.358,-112.457 q 4.108,10.06441 7.63169,20.969 a 179.71113,179.71113 0 0 1 6.91194,31.97757 z"
     id="path990"
     inkscape:connector-curvature="0"
     style="fill:#f50057" />
  <path
     d="m 111.07765,520.72616 54.46112,9.82395 c 13.10368,12.80531 28.19261,26.74479 44.79625,40.72707 l -83.83,-9.32 0.46419,0.99085 c -7.82563,-14.67976 -13.36994,-29.28583 -16.27952,-43.20264 z"
     id="path992"
     inkscape:connector-curvature="0"
     style="fill:#f50057" />
  <path
     d="m 163.24411,528.29961 -52.755,-9.51554 c -3.1345,-15.6123 -2.92179,-30.33329 1.18164,-43.27621 0.21352,-0.67337 0.444,-1.33255 0.6764,-1.99 3.1706,3.84185 21.93085,26.26685 50.89696,54.78175 z"
     id="path994"
     inkscape:connector-curvature="0"
     style="fill:#f50057" />
  <path
     d="m 212.79,657.54133 0.72593,0.99245 q -9.50426,-6.77368 -18.35581,-14.12509 l 100.48228,-11.94719 -0.31372,-0.46659 q 6.04679,3.52 12.0409,6.76586 z"
     id="path996"
     inkscape:connector-curvature="0"
     style="fill:#f50057" />
  <path
     d="m 162.45083,612.63704 0.60882,1.00564 a 258.75283,258.75283 0 0 1 -35.53692,-49.67629 l 85.42744,9.49685 q 23.43264,19.551 46.54281,35.61043 z"
     id="path998"
     inkscape:connector-curvature="0"
     style="fill:#f50057" />
  <path
     d="m 212.58612,436.86358 a 216.0523,216.0523 0 0 1 41.2263,14.02231 l -4.14595,149.36272 c -13.17683,-9.55568 -25.44414,-19.2447 -36.56272,-28.54693 l 0.59181,-134.31131 z"
     id="path1000"
     inkscape:connector-curvature="0"
     style="fill:#f50057" />
  <path
     d="m 269.01261,458.33519 -1.10436,-0.54868 -6.32271,150.88948 q -4.932,-3.39645 -9.71554,-6.83542 l 4.16125,-149.91391 -1.10711,-0.54085 q 6.99819,3.1934 14.08847,6.94938 z"
     id="path1002"
     inkscape:connector-curvature="0"
     style="fill:#f50057" />
  <path
     d="m 193.35325,642.46292 0.67283,1.00066 a 309.00325,309.00325 0 0 1 -30.06679,-28.82593 l 98.35449,-3.61135 q 15.471,10.62106 30.68437,19.589 z"
     id="path1004"
     inkscape:connector-curvature="0"
     style="fill:#f50057" />
  <path
     d="m 354.502,660.41 c 24.87237,9.295 48.83063,14.72482 71.61294,16.20749 -18.86618,6.0076 -96.65223,28.06169 -163.709,7.19743 z"
     id="path1006"
     inkscape:connector-curvature="0"
     style="fill:#f50057" />
  <path
     d="m 317.27861,492.50377 a 298.92425,298.92425 0 0 1 26.82383,29.69325 l -1.23791,-0.52868 9.877,136.25577 a 371.63021,371.63021 0 0 1 -40.54025,-18.44386 z"
     id="path1008"
     inkscape:connector-curvature="0"
     style="fill:#f50057" />
  <path
     d="m 164.2897,527.2722 c -31.33158,-30.85906 -50.59259,-54.49117 -50.86809,-54.831 l -0.77766,0.24567 c 7.149,-19.35767 22.57331,-31.663 43.23975,-36.83473 z"
     id="path1010"
     inkscape:connector-curvature="0"
     style="fill:#f50057" />
  <path
     d="m 310.47218,640.41696 c 1.24414,0.66161 2.49021,1.33215 3.73068,1.976 a 369.21967,369.21967 0 0 0 36.58453,16.60606 l -91.223,23.18286 0.73586,0.95535 a 146.3802,146.3802 0 0 1 -33.4805,-15.61992 q -6.1448,-3.91753 -12.0545,-8.09548 z"
     id="path1012"
     inkscape:connector-curvature="0"
     style="fill:#f50057" />
  <path
     d="m 210.88947,569.84041 c -16.40537,-13.835 -31.31177,-27.61528 -44.26083,-40.27352 l -8.59954,-93.51765 -1.10584,-0.45836 c 15.67583,-3.70971 34.29113,-3.37476 54.55317,1.03208 z"
     id="path1014"
     inkscape:connector-curvature="0"
     style="fill:#f50057" />
  <path
     d="M 354.94792,658.76045 345.143,523.50183 c 49.5944,62.86171 83.03228,146.09016 85.13956,151.39894 -25.35768,-0.9813 -50.7495,-6.9773 -75.33464,-16.14032 z"
     id="path1016"
     inkscape:connector-curvature="0"
     style="fill:#f50057" />
  <path
     d="m 309.989,638.24058 -0.0906,0.018 a 501.53942,501.53942 0 0 1 -46.11235,-28.07626 l 6.33811,-151.26079 q 9.58314,5.13139 19.25216,11.28247 a 179.71165,179.71165 0 0 1 25.71928,20.22025 z"
     id="path1018"
     inkscape:connector-curvature="0"
     style="fill:#f50057" />
  <path
     d="m 393.92987,338.62164 20.85677,51.25933 c -3.80119,17.923 -7.49758,38.13 -10.41926,59.63922 l -37.00438,-75.79584 -0.58842,0.92251 c 8.20991,-14.46835 17.57883,-26.97036 27.776,-36.878 z"
     id="path1020"
     inkscape:connector-curvature="0"
     style="fill:#f50057" />
  <path
     d="m 415.45911,386.73804 -20.20394,-49.65319 c 11.50886,-11.00523 24.05674,-18.70611 37.18558,-22.16887 0.68307,-0.18012 1.36323,-0.33832 2.043,-0.494 -1.54775,4.73473 -10.44604,32.58516 -19.02464,72.31606 z"
     id="path1022"
     inkscape:connector-curvature="0"
     style="fill:#f50057" />
  <path
     d="m 332.819,497.77333 -0.44965,1.14444 q 0.63347,-11.65386 2.10431,-23.06569 l 63.882,78.47618 0.22616,-0.51476 q 0.26388,6.99171 0.73108,13.79223 z"
     id="path1024"
     inkscape:connector-curvature="0"
     style="fill:#f50057" />
  <path
     d="m 343.79929,431.21612 -0.52349,1.05258 a 258.75218,258.75218 0 0 1 22.93494,-56.60914 l 37.71016,77.23977 q -3.96952,30.25843 -5.16253,58.37537 z"
     id="path1026"
     inkscape:connector-curvature="0"
     style="fill:#f50057" />
  <path
     d="m 519.10421,379.46632 a 216.05266,216.05266 0 0 1 10.22568,42.32811 L 400.952,498.25049 c 1.01724,-16.24515 2.634,-31.79346 4.539,-46.16445 l 113.76217,-71.40063 z"
     id="path1028"
     inkscape:connector-curvature="0"
     style="fill:#f50057" />
  <path
     d="m 531.17495,438.621 -0.12775,-1.22651 -130.83273,75.43479 q 0.22858,-5.984 0.57251,-11.86537 l 128.85163,-76.7382 -0.13584,-1.22466 q 1.04904,7.6205 1.67218,15.61995 z"
     id="path1030"
     inkscape:connector-curvature="0"
     style="fill:#f50057" />
  <path
     d="m 335.14991,473.28429 -0.485,1.104 a 309.00293,309.00293 0 0 1 8.2521,-40.82707 l 55.70213,81.14135 q -0.689,18.75321 -0.11956,36.4039 z"
     id="path1032"
     inkscape:connector-curvature="0"
     style="fill:#f50057" />
  <path
     d="m 406.2583,619.00528 c 5.4639,25.98418 13.70312,49.12714 24.64678,69.16382 -15.17387,-12.7192 -75.44272,-66.61462 -93.71714,-134.423 z"
     id="path1034"
     inkscape:connector-curvature="0"
     style="fill:#f50057" />
  <path
     d="M 528.15278,497.67998 A 298.92583,298.92583 0 0 1 517.432,536.23219 l -0.21614,-1.32861 -109.8003,81.284 a 371.62869,371.62869 0 0 1 -6.1238,-44.11561 z"
     id="path1036"
     inkscape:connector-curvature="0"
     style="fill:#f50057" />
  <path
     d="m 416.88665,387.0712 c 9.2923,-42.98376 18.9421,-71.90338 19.08163,-72.318 l -0.6238,-0.52533 c 20.17739,-4.32434 38.82807,2.11637 54.25967,16.8036 z"
     id="path1038"
     inkscape:connector-curvature="0"
     style="fill:#f50057" />
  <path
     d="m 399.575,571.11292 c 0.1072,1.405 0.20788,2.81649 0.32808,4.20894 a 369.21986,369.21986 0 0 0 5.55846,39.79061 l -68.41542,-64.64061 -0.413,1.133 a 146.37943,146.37943 0 0 1 -4.72975,-36.64089 q 0.0195,-7.28733 0.38471,-14.5155 z"
     id="path1040"
     inkscape:connector-curvature="0"
     style="fill:#f50057" />
  <path
     d="m 405.87775,449.21937 c 2.90344,-21.263 6.56307,-41.23053 10.3228,-58.94419 l 74.38563,-57.3261 -0.20484,-1.17941 c 11.52509,11.25459 21.20745,27.15722 28.33206,46.63055 z"
     id="path1042"
     inkscape:connector-curvature="0"
     style="fill:#f50057" />
  <path
     d="M 407.89031,618.4989 516.887,537.80963 c -26.5466,75.54121 -78.94487,148.3388 -82.30081,152.96062 -12.74585,-21.94348 -21.27428,-46.60043 -26.69588,-72.27135 z"
     id="path1044"
     inkscape:connector-curvature="0"
     style="fill:#f50057" />
  <path
     d="m 401.15462,569.53983 -0.0637,-0.0669 a 501.53867,501.53867 0 0 1 -0.97073,-53.97854 l 131.1546,-75.62058 q 0.7959,10.84134 0.77652,22.30106 a 179.71014,179.71014 0 0 1 -3.3107,32.5481 z"
     id="path1046"
     inkscape:connector-curvature="0"
     style="fill:#f50057" />
  <ellipse
     cx="-553"
     cy="762.90955"
     rx="553"
     ry="32"
     id="ellipse1048"
     transform="scale(-1,1)"
     style="fill:#3f3d56" />
  <path
     d="m 361,722.14477 c 0,62.194 86.691,42.9568 192.83533,42.9568 106.14433,0 191.54737,19.23714 191.54737,-42.9568 0,-62.19394 -86.67912,-75.72061 -192.82347,-75.72061 C 446.41488,646.42416 361,659.95077 361,722.14477 Z"
     id="path1050"
     inkscape:connector-curvature="0"
     style="opacity:0.1" />
  <path
     d="m 361,706.83154 c 0,62.194 86.691,42.95679 192.83533,42.95679 106.14433,0 191.54737,19.23716 191.54737,-42.95679 0,-62.19395 -86.67912,-75.72062 -192.82347,-75.72062 C 446.41488,631.11092 361,644.63758 361,706.83154 Z"
     id="path1052"
     inkscape:connector-curvature="0"
     style="fill:#3f3d56" />
  <path
     d="m 340.02615,447.59777 c 0,0 0,104.38922 -5.57805,127.49828 -5.57805,23.10906 -25.49965,106.77981 -25.49965,106.77981 l -27.09339,-5.578 c 0,0 4.78119,-110.76413 9.56237,-126.70142 4.78118,-15.93729 -5.578,-81.28015 -19.12474,-95.62371 -13.54674,-14.34356 6.37491,-23.10906 6.37491,-23.10906 z"
     id="path1054"
     inkscape:connector-curvature="0"
     style="fill:#2f2e41" />
  <path
     d="m 340.02615,447.59777 c 0,0 0,104.38922 -5.57805,127.49828 -5.57805,23.10906 -25.49965,106.77981 -25.49965,106.77981 l -27.09339,-5.578 c 0,0 4.78119,-110.76413 9.56237,-126.70142 4.78118,-15.93729 -5.578,-81.28015 -19.12474,-95.62371 -13.54674,-14.34356 6.37491,-23.10906 6.37491,-23.10906 z"
     id="path1056"
     inkscape:connector-curvature="0"
     style="opacity:0.1" />
  <path
     d="m 274.68328,661.95429 c 0,0 35.85889,14.34356 38.24949,14.34356 2.3906,0 3.98432,41.43692 3.98432,41.43692 0,0 -2.39059,24.7028 36.65575,32.67144 39.04634,7.96864 -31.0777,25.49965 -43.82753,16.73415 -12.74983,-8.7655 -18.32788,-15.14042 -18.32788,-15.14042 l -4.78118,-7.96865 1.59375,13.54672 -5.578,0.79686 -12.74982,-25.49966 c 0,0 -3.18746,-19.12474 0.79686,-23.90592 3.98432,-4.78118 3.98424,-47.015 3.98424,-47.015 z"
     id="path1058"
     inkscape:connector-curvature="0"
     style="fill:#2f2e41" />
  <polygon
     points="656.803,543.222 683.1,540.831 678.319,518.519 651.225,512.144 "
     id="polygon1060"
     transform="matrix(-1,0,0,1,1106,0)"
     style="fill:#a0616a" />
  <path
     d="m 325.6826,380.66121 4.78118,7.96864 c 0,0 137.85752,-19.12474 137.85752,31.87457 0,50.99931 6.37491,81.28016 7.96864,83.67075 1.59373,2.39059 -41.43694,27.89025 -50.99931,26.29652 0,0 -6.37492,-8.76551 -5.578,-19.92161 0.79692,-11.1561 -6.37492,-52.593 0,-54.98363 0,0 -7.96864,-3.18746 -7.17178,-7.96864 0,0 -112.35786,15.93728 -126.70142,12.74982 -14.34356,-3.18746 -23.90593,-13.54669 -26.29652,-19.9216 -2.39059,-6.37491 -7.51091,-31.24215 -7.51091,-31.24215 l 1.136,-42.06936 12.74983,-15.14043 19.12474,-2.39059 29.484,18.32788 z"
     id="path1062"
     inkscape:connector-curvature="0"
     style="fill:#2f2e41" />
  <path
     d="m 240.41812,456.36331 c 0,0 11.1561,25.49966 -1.59373,25.49966 -12.74983,0 -17.531,-22.3122 -17.531,-22.3122 z"
     id="path1064"
     inkscape:connector-curvature="0"
     style="fill:#a0616a" />
  <path
     d="m 325.6826,249.97547 3.98432,-4.78119 c 0,0 44.6244,-100.4049 27.09338,-127.49828 -17.53102,-27.09338 -94.03,-31.07771 -96.42057,-29.484 -2.39057,1.59371 -9.56238,7.17178 -8.76551,8.76551 0.79687,1.59373 16.73415,5.578 11.1561,15.14042 0,0 7.96864,2.39059 9.56237,-0.79686 1.59373,-3.18745 6.37491,-3.98433 7.96864,-0.79687 1.59373,3.18746 27.09339,10.35924 27.09339,12.74983 0,2.39059 3.98432,14.34356 7.96864,15.93729 3.98432,1.59373 -0.79686,25.49965 -8.76551,31.87457 -7.96865,6.37492 -13.54669,23.90592 -13.54669,23.90592 l 3.98432,35.8589 z"
     id="path1066"
     inkscape:connector-curvature="0"
     style="fill:#d0cde1" />
  <path
     d="m 302.87781,115.88494 c 4.76656,2.42659 9.507,5.52565 12.38153,10.40894 5.883,9.99425 2.12541,23.667 5.77,34.90875 1.55408,4.79351 4.38534,8.91288 6.72138,13.29456 2.33604,4.38168 4.24229,9.39108 3.63048,14.44209 -0.60017,4.95493 -3.51539,9.15749 -4.89233,13.916 -2.36958,8.189 0.005,17.06735 2.68051,25.13845 q 2.19747,6.62911 4.67437,13.13754 c 0.958,2.51715 2.10758,5.21407 4.30635,6.42679 l -18.85787,1.54729 c -5.4811,0.44972 -11.53794,0.71457 -15.84558,-3.08942 a 18.28654,18.28654 0 0 1 -4.12624,-5.89848 c -4.25672,-8.88945 -4.94447,-19.37175 -4.45536,-29.43319 0.48911,-10.06144 2.06273,-20.05956 1.97666,-30.13529 a 30.62859,30.62859 0 0 0 -1.32144,-9.77432 55.1572,55.1572 0 0 0 -3.54233,-7.17006 c -4.29823,-8.28774 -6.07375,-17.85509 -7.78708,-27.23532 -1.17494,-6.43263 -3.05044,-15.7505 0.31145,-21.79439 3.35181,-6.02569 13.84238,-0.99768 18.3755,1.31006 z"
     id="path1068"
     inkscape:connector-curvature="0"
     style="fill:#2f2e41" />
  <circle
     cx="-284.24567"
     cy="153.5549"
     r="32.671429"
     id="circle1070"
     transform="scale(-1,1)"
     style="fill:#a0616a" />
  <path
     d="m 296.99548,181.44514 c 0,0 -5.17962,20.32 -1.99216,30.67928 3.18746,10.35928 -43.4291,-13.94513 -43.4291,-13.94513 0,0 14.34356,-19.12474 14.34356,-25.49966 z"
     id="path1072"
     inkscape:connector-curvature="0"
     style="fill:#a0616a" />
  <path
     d="m 237.23066,212.52285 c 0,0 10.35924,-7.96864 10.35924,-11.953 0,-3.98436 7.17178,-12.74982 7.17178,-12.74982 0,0 34.26516,17.531 35.85889,17.531 1.59373,0 2.39059,-10.35924 2.39059,-10.35924 l 36.65576,50.20245 c 0,0 11.953,28.68712 7.96864,50.99932 -3.98436,22.3122 -10.35924,45.42126 -7.17178,66.13973 3.18746,20.71847 -0.79686,27.89025 -5.57805,25.49966 -4.78119,-2.39059 0,-10.35924 -10.35923,-9.56237 -10.35923,0.79687 -45.42127,-10.35924 -47.81186,-15.14043 -2.39059,-4.78119 -11.953,10.35924 -12.74983,19.12475 -0.79683,8.76551 1.59373,32.67143 0,31.87457 -1.59373,-0.79686 -3.98432,-14.34356 -4.78118,-20.71847 -0.79686,-6.37491 -3.18746,-27.09339 0,-30.28085 3.18746,-3.18746 0.79686,-7.96864 -1.59373,-9.56237 -2.39059,-1.59373 -41.4369,-100.40485 -41.4369,-100.40485 0,0 3.98432,-20.71848 17.531,-27.89025 13.54668,-7.17177 13.54666,-12.74983 13.54666,-12.74983 z"
     id="path1074"
     inkscape:connector-curvature="0"
     style="fill:#d0cde1" />
  <path
     d="m 218.90278,239.61623 -12.74982,13.5467 v 71.71778 c 0,0 -16.73415,86.06134 -6.37492,90.84253 10.35923,4.78119 15.14042,3.18745 15.14042,3.18745 0,0 -2.39059,43.82754 4.78119,43.82754 7.17178,0 18.32788,-3.18746 24.70279,-1.59373 0,0 -1.59373,-15.93729 -6.37491,-23.10906 -4.78118,-7.17177 -4.78119,-19.92161 -4.78119,-19.92161 0,0 7.17178,0 7.17178,-10.35924 0,-10.35924 0.79686,-16.73415 1.59373,-19.12474 0.79687,-2.39059 6.37491,-44.6244 6.37491,-44.6244 z"
     id="path1076"
     inkscape:connector-curvature="0"
     style="fill:#d0cde1" />
  <path
     d="m 291.22018,114.23392 c -5.51586,-3.50559 -12.829,-0.85209 -19.23558,-2.14417 -6.96414,-1.40453 -12.76773,-7.478 -19.86367,-7.13226 -5.90185,0.28757 -10.56329,4.94185 -14.385,9.44844 a 66.65609,66.65609 0 0 0 -9.16636,13.12558 c -2.61759,5.25389 -4.04182,11.00679 -5.44668,16.706 l -4.71253,19.11793 c -1.59746,6.48062 -3.2142,13.01561 -6.11538,19.02672 -2.90118,6.01111 -7.22177,11.53783 -13.08824,14.72136 a 38.50732,38.50732 0 0 0 22.01655,0.0709 45.156,45.156 0 0 1 -13.25538,18.53539 c 5.3149,1.62171 11.0417,-0.0129 16.58732,0.33949 a 23.54178,23.54178 0 0 1 19.07539,12.503 c 2.89615,5.64753 3.34147,12.19246 5.07089,18.29913 5.16229,18.22836 23.13294,32.01237 42.07638,32.27381 -5.31116,-7.6559 -10.88691,-16.54241 -8.82978,-25.63028 1.24336,-5.49285 5.16139,-10.10443 6.32317,-15.61511 1.2418,-5.89023 -0.81142,-11.89865 -2.20633,-17.75451 -1.39491,-5.85586 -1.97355,-12.57886 1.65632,-17.381 3.84853,-5.09147 11.57241,-6.773 14.05412,-12.65311 a 18.04434,18.04434 0 0 0 0.97785,-6.789 l 0.15859,-10.4792 a 22.16342,22.16342 0 0 0 -0.55238,-6.54411 c -0.81682,-2.8076 -2.69728,-5.16057 -4.4904,-7.47024 -3.40694,-4.38838 -6.72111,-9.05609 -8.04169,-14.4525 -1.60356,-6.55279 0.88515,-10.618 4.07719,-15.9223 2.7609,-4.58787 2.1059,-11.15554 -2.68437,-14.19998 z"
     id="path1078"
     inkscape:connector-curvature="0"
     style="fill:#2f2e41" />
  <path
     d="m 256.3554,93.79007 c 0,0 -36.65575,31.87457 -27.0934,43.0307 9.56235,11.15613 24.70279,-20.71847 24.70279,-20.71847 l 15.93729,-11.953 z"
     id="path1080"
     inkscape:connector-curvature="0"
     style="fill:#a0616a" />
  <path
     d="m 409.35334,521.70618 c 0,0 42.23381,10.35924 47.015,19.12475 0,0 5.578,27.09338 5.578,38.24948 0,11.1561 2.3906,31.87457 24.7028,35.85889 22.3122,3.98432 38.24948,11.1561 7.96864,16.73415 -30.28084,5.57805 -39.04635,7.17178 -47.81186,-4.78118 -8.76551,-11.95296 -13.54669,-15.14042 -13.54669,-15.14042 l -6.37491,15.93728 H 422.9 L 407.75957,595.0177 c 0,0 -1.59372,-15.93729 2.3906,-25.49966 3.98432,-9.56237 -0.79683,-47.81186 -0.79683,-47.81186 z"
     id="path1082"
     inkscape:connector-curvature="0"
     style="fill:#2f2e41" />
  <path
     d="m 251.97265,96.5791 c 0,0 1.21823,12.74983 18.53856,15.14042 l 3.77364,-11.953 -11.953,-10.35923 z"
     id="path1084"
     inkscape:connector-curvature="0"
     style="fill:#d0cde1" />
  <circle
     cx="-677.49463"
     cy="500.59912"
     r="86"
     id="circle1086"
     transform="scale(-1,1)"
     style="fill:#f50057" />
  <path
     d="m 721.2353,372.87885 h 1.1e-4 a 67.42193,67.42193 0 0 0 83.03721,-36.49526 L 897.4917,127.03023 A 90.274,90.274 0 0 0 843.73743,4.72377 l -1.8e-4,-7e-5 a 90.27406,90.27406 0 0 0 -116.8094,65.87319 l -50.04222,223.63905 a 67.42192,67.42192 0 0 0 44.34967,78.64291 z"
     id="path1088"
     inkscape:connector-curvature="0"
     style="fill:#f50057" />
  <circle
     cx="-677.49463"
     cy="500.59912"
     r="86"
     id="circle1090"
     transform="scale(-1,1)"
     style="opacity:0.1" />
  <path
     d="m 721.2353,372.87885 h 1.1e-4 a 67.42193,67.42193 0 0 0 83.03721,-36.49526 L 897.4917,127.03023 A 90.274,90.274 0 0 0 843.73743,4.72377 l -1.8e-4,-7e-5 a 90.27406,90.27406 0 0 0 -116.8094,65.87319 l -50.04222,223.63905 a 67.42192,67.42192 0 0 0 44.34967,78.64291 z"
     id="path1092"
     inkscape:connector-curvature="0"
     style="opacity:0.1" />
  <circle
     cx="-680.67542"
     cy="491.11847"
     r="69"
     id="circle1094"
     transform="scale(-1,1)"
     style="fill:#f50057" />
  <path
     d="m 729.43006,348.20392 h 10e-5 a 61.86135,61.86135 0 0 0 76.18878,-33.48533 L 891.14985,122.63147 A 82.82877,82.82877 0 0 0 841.82893,10.41216 l -1.8e-4,-6e-5 A 82.82878,82.82878 0 0 0 734.65312,70.85245 l -45.915,205.19459 a 61.86136,61.86136 0 0 0 40.69194,72.15688 z"
     id="path1096"
     inkscape:connector-curvature="0"
     style="fill:#f50057" />
</svg>
