<svg id="b9662ebd-6742-415a-b964-20bc217b5817" data-name="Layer 1" xmlns="http://www.w3.org/2000/svg" width="888" height="674.5" viewBox="0 0 888 674.5"><title>google_docs</title><rect x="256" y="20.5" width="418" height="537.56376" fill="#e6e8ec"/><rect x="354.09051" y="117.80894" width="213.40346" height="2.39779" fill="#3f3d56"/><rect x="354.09051" y="134.59348" width="213.40346" height="2.39779" fill="#3f3d56"/><rect x="354.09051" y="151.37802" width="213.40346" height="2.39779" fill="#3f3d56"/><rect x="354.09051" y="242.80894" width="213.40346" height="2.39779" fill="#2e7abb"/><rect x="354.09051" y="259.59348" width="213.40346" height="2.39779" fill="#2e7abb"/><rect x="354.09051" y="276.37802" width="213.40346" height="2.39779" fill="#3f3d56"/><rect x="354.09051" y="318.80894" width="213.40346" height="2.39779" fill="#3f3d56"/><rect x="354.09051" y="335.59348" width="213.40346" height="2.39779" fill="#3f3d56"/><rect x="354.09051" y="352.37802" width="213.40346" height="2.39779" fill="#3f3d56"/><rect x="354.09051" y="394.80894" width="213.40346" height="2.39779" fill="#3f3d56"/><rect x="354.09051" y="411.59348" width="213.40346" height="2.39779" fill="#2e7abb"/><rect x="354.09051" y="428.37802" width="213.40346" height="2.39779" fill="#3f3d56"/><rect x="354.09051" y="470.80894" width="213.40346" height="2.39779" fill="#3f3d56"/><rect x="354.09051" y="487.59348" width="213.40346" height="2.39779" fill="#3f3d56"/><rect x="354.09051" y="504.37802" width="213.40346" height="2.39779" fill="#3f3d56"/><path d="M859.5,709.75h-449v-597h449Zm-447-2h445v-593h-445Z" transform="translate(-156 -112.75)" fill="#3f3d56"/><path d="M760,159.25a12.98406,12.98406,0,0,1,6.5-11.24664,13,13,0,1,0,0,22.49328A12.98406,12.98406,0,0,1,760,159.25Z" transform="translate(-156 -112.75)" fill="#3f3d56"/><path d="M777,159.25a12.98406,12.98406,0,0,1,6.5-11.24664,13,13,0,1,0,0,22.49328A12.98406,12.98406,0,0,1,777,159.25Z" transform="translate(-156 -112.75)" fill="#2e7abb"/><circle cx="638" cy="46.5" r="13" fill="#3f3d56"/><path d="M781.80353,710.79863l-1.07325-.40235c-.23584-.08886-23.70849-9.082-34.7041-29.47363-10.99609-20.39258-5.61182-44.94531-5.55615-45.19043l.25342-1.11816,1.07275.40234c.23584.08887,23.708,9.082,34.7041,29.47363,10.9961,20.39258,5.61182,44.94532,5.55615,45.19043Zm-34.01661-30.8252c9.29639,17.24121,27.84522,26.0791,32.54493,28.09668.89355-5.03711,3.6958-25.40625-5.59229-42.63086-9.28711-17.22265-27.84326-26.07422-32.54492-28.09668C741.3006,642.38261,738.49933,662.7498,747.78692,679.97343Z" transform="translate(-156 -112.75)" fill="#3f3d56"/><path d="M754.42937,673.7696c19.76057,11.88861,27.371,35.50267,27.371,35.50267s-24.42779,4.33881-44.18836-7.5498-27.371-35.50267-27.371-35.50267S734.6688,661.881,754.42937,673.7696Z" transform="translate(-156 -112.75)" fill="#2e7abb"/><path d="M495,273.25a108.07045,108.07045,0,0,1-56.91,95.17q-1.93506,1.05-3.93006,2.01a108.16525,108.16525,0,0,1-94.66-.17q-3.81-1.86007-7.44-4.02c-2.46-1.44-4.85-2.99-7.17-4.63a108.01767,108.01767,0,0,1,13.37-184.75,106.20059,106.20059,0,0,1,20.6-7.9q4.71-1.275,9.58-2.12A108.11511,108.11511,0,0,1,387,165.25c1.28,0,2.55.02,3.82.08q1.395.03,2.79.12a107.40753,107.40753,0,0,1,28.53,5.65c.79.27,1.58.55,2.36.84q4.08,1.5,7.98,3.34A107.97684,107.97684,0,0,1,495,273.25Z" transform="translate(-156 -112.75)" fill="#3f3d56"/><path d="M429.15432,162.81c-9.82584-23.18412-34.8382-27.56267-34.8382-27.56267s-24.08323-6.42488-44.19591,24.17333c-18.74663,28.52005-42.92154,55.24081-12.26294,66.62455l8.09848-17.00807.97154,19.57354a124.81978,124.81978,0,0,0,13.49678,2.04821c34.00632,3.45471,66.06257,9.19891,66.65627-3.09075C427.86961,211.2308,438.60876,185.1178,429.15432,162.81Z" transform="translate(-156 -112.75)" fill="#2f2e41"/><path d="M341.82,351.76l-.8,6.42-1.52,12.08q-3.81-1.86007-7.44-4.02c-2.46-1.44-4.85-2.99-7.17-4.63l.24-6.23.27-6.91,11.1,2.23Z" transform="translate(-156 -112.75)" fill="#ffb8b8"/><path d="M453.55005,358.32a108.09346,108.09346,0,0,1-15.46,10.1l-5.24-18.15-.69-2.39-1.72-5.97,1.85-.29,18.94-2.99.61011,5.15Z" transform="translate(-156 -112.75)" fill="#ffb8b8"/><circle cx="238.3329" cy="68.32589" r="29.54071" fill="#ffb8b8"/><path d="M374.092,192.56394s2.1882,37.19942-4.3764,39.38762,33.91711,0,33.91711,0-5.4705-22.97611,0-29.54071S374.092,192.56394,374.092,192.56394Z" transform="translate(-156 -112.75)" fill="#ffb8b8"/><path d="M404.1798,225.934s-28.44661-2.1882-33.91711,0-20.78791,13.1292-20.78791,13.1292l7.6587,68.92834,62.36373,13.1292,9.84691-14.2233,9.8469-20.78791-4.3764-26.25842-1.0941-15.3174Z" transform="translate(-156 -112.75)" fill="#d0cde1"/><path d="M344.00427,243.43962s-14.2233,3.2823-15.3174,14.2233-1.0941,38.29352,0,42.66992,0,6.56461-1.0941,7.65871-3.28231-1.0941-1.09411,2.1882,2.18821,3.2823,1.09411,6.5646-4.37641-1.0941-2.18821,4.3764,3.28231,6.56461,2.18821,7.65871-4.37641,26.25841-4.37641,26.25841l18.59971,3.2823,18.59971-64.55193Z" transform="translate(-156 -112.75)" fill="#d0cde1"/><path d="M429.34412,243.43962a11.66,11.66,0,0,1,9.8469,6.5646c3.2823,6.5646,12.03511,49.23452,10.941,52.51683s-3.28231-1.0941-1.09411,5.4705,0,5.4705,1.09411,9.8469-4.37641,0,0,4.37641,6.5646,5.4705,4.3764,7.6587-5.47051-2.1882-2.1882,2.1882,3.2823,10.941,3.2823,10.941l-26.25841,5.4705-7.65871-61.26963Z" transform="translate(-156 -112.75)" fill="#d0cde1"/><path d="M432.85,350.27l1.31,20.16a108.16525,108.16525,0,0,1-94.66-.17q-3.81-1.86007-7.44-4.02c.84-3.09,1.69-6.17,2.56-9.19q.93-3.225,1.88-6.35c4.91-16.07,10.2-29.74,15.16-35.05,0,0,0-12.03,2.19-13.13a7.228,7.228,0,0,0,2.32-3.18,42.66329,42.66329,0,0,0,2.06-5.57l-3.62-8.42-16.2-37.72A4.60863,4.60863,0,0,1,340.58,241.7l5.37-2.69a4.61073,4.61073,0,0,1,6.19,2.1l24.69,50.47,27.35,17.51,19.18-8.53.51-.23s14.23-21.88,9.85-32.82c-1.87-4.67-3.93-10.91-5.7-16.54-1.03-3.32-1.95-6.43-2.67-8.87a1.96773,1.96773,0,0,1,2.98-2.19l3.73,2.49a5.42487,5.42487,0,0,1,1.93,2.29,4.93016,4.93016,0,0,1,.38,1.14l8.1,39.19L431.53,307.99v21.88l.76,11.75.4,6.15Z" transform="translate(-156 -112.75)" fill="#2f2e41"/><polygon points="267.599 41.637 242.532 28.507 207.916 33.878 200.754 65.51 218.582 64.825 223.563 53.203 223.563 64.633 231.789 64.317 236.564 45.815 239.548 65.51 268.793 64.914 267.599 41.637" fill="#2f2e41"/><ellipse cx="208.24513" cy="68.32589" rx="3.2823" ry="5.74403" fill="#ffb8b8"/><path d="M1018.58506,452.31348c0,47.93328-32.3786,88.49988-76.99708,102.07484a109.73417,109.73417,0,0,1-20.19979,4.15865,112.60035,112.60035,0,0,1-12.59566.703c-1.5656,0-3.121-.02973-4.66627-.1089H904.106a111.252,111.252,0,0,1-45.1573-11.5254,109.98258,109.98258,0,0,1-26.96019-18.89213A105.22516,105.22516,0,0,1,799,452.31348c0-45.31932,28.9425-84.0541,69.80967-99.61928a109.23089,109.23089,0,0,1,15.01517-4.53492,113.14582,113.14582,0,0,1,56.91928,1.83176c1.403.39609,2.79564.84167,4.16815,1.31692.01018,0,.02035.00991.03053.00991a103.7286,103.7286,0,0,1,9.71861,3.822c1.0877.47526,2.17553.98024,3.243,1.515q3.20205,1.54461,6.2825,3.317c.793.44558,1.57578.901,2.3484,1.37633a109.06973,109.06973,0,0,1,32.17521,29.58578,105.02529,105.02529,0,0,1,16.77386,36.08117A103.91129,103.91129,0,0,1,1018.58506,452.31348Z" transform="translate(-156 -112.75)" fill="#2e7abb"/><path d="M1027.25413,278.83416l15.03-4.56435,1.29664-12.89282s-36.55624-13.44968-48.24336,10.34037c-4.12657,8.39993-9.32741,13.44463-14.32954,16.45619a27.04156,27.04156,0,0,1-22.99132,1.9286c-25.33542-9.01213-31.30175,16.61622-31.30175,16.61622s2.19012,3.64822,17.80733,4.54521c7.77212.44641,14.13164,6.143,18.55967,11.75356,9.48182,12.01411,28.95839,8.542,33.7408-5.87783q.11558-.34863.22768-.70614c7.47068-23.83654,41.48209-4.858,41.48209-4.858l2.17127-21.58982Z" transform="translate(-156 -112.75)" fill="#2f2e41"/><ellipse cx="768.84312" cy="206.50131" rx="18.40864" ry="17.92978" fill="#2f2e41"/><ellipse cx="759.6388" cy="254.31407" rx="49.08972" ry="47.81276" fill="#2f2e41"/><ellipse cx="758.10474" cy="271.7458" rx="33.74918" ry="32.87127" fill="#a0616a"/><path d="M900.80961,409.39828l6.13622,31.87518,30.68107-3.9844s-5.11351-24.90248-2.0454-31.87517Z" transform="translate(-156 -112.75)" fill="#a0616a"/><path d="M961.14906,339.67134s-24.54486-17.92978-34.77189-10.95709,27.613,29.883,31.70378,27.89078S961.14906,339.67134,961.14906,339.67134Z" transform="translate(-156 -112.75)" fill="#a0616a"/><path d="M984.67138,475.13649a4.10986,4.10986,0,0,1-.02035.49508v.00991c-.63028,14.2384-27.53959,57.81505-43.063,78.74684a109.73417,109.73417,0,0,1-20.19979,4.15865,112.60035,112.60035,0,0,1-12.59566.703c-1.5656,0-3.121-.02973-4.66627-.1089H904.106c-14.29329-4.49534-31.27055-10.39661-43.65276-15.05034-5.83526-2.20808-10.65392-4.129-13.68336-5.49534a19.608,19.608,0,0,1-3.23271-1.69318c-5.11352-3.99035,6.14016-6.98057,11.25368-7.97072,5.11339-1.00006-2.04337-11.95115-2.04337-11.95115-18.41057-18.93172,4.08674-34.86331,4.08674-34.86331s9.20013-18.93172,9.20013-23.91216a1.7951,1.7951,0,0,1,.39661-1.01c3.85282-5.30721,34.38128-14.92162,34.38128-14.92162V426.33187l3.1616-.51489,31.10786-5.04976,2.54149-.41591,5.11352,7.97072,22.50748,2.99028S984.67138,457.21475,984.67138,475.13649Z" transform="translate(-156 -112.75)" fill="#d0cde1"/><path d="M887.51521,475.13649s-13.48009,36.398-25.79119,65.89467c-.42689,1.0298-.85391,2.04962-1.27075,3.0596-.5083,1.1882-1.00642,2.36642-1.50454,3.52494a109.98258,109.98258,0,0,1-26.96019-18.89213c5.53035-17.51581,14.3036-45.349,17.68882-56.56745,3.731-12.367,12.36186-14.63443,16.75363-14.96119a13.44628,13.44628,0,0,1,2.67353.01982Z" transform="translate(-156 -112.75)" fill="#d0cde1"/><path d="M962.17176,434.30076l3.06811-2.9883s38.86269-40.84006,37.84-50.801c0,0-20.45405-24.90248-46.02161-17.92979,0,0-11.24973-26.89467,6.13621-25.89857s81.8162-2.9883,80.7935,25.89857-62.38485,117.5397-62.38485,117.5397Z" transform="translate(-156 -112.75)" fill="#d0cde1"/><path d="M921.38819,558.547a112.60035,112.60035,0,0,1-12.59566.703c-1.5656,0-3.121-.02973-4.66627-.1089H904.106a111.252,111.252,0,0,1-45.1573-11.5254,109.59606,109.59606,0,0,1-12.92092-7.55487l.7421-1.46541v-.00991l.8642-1.68327,14.08991,4.12892Z" transform="translate(-156 -112.75)" fill="#2f2e41"/><ellipse cx="915.6388" cy="359.09528" rx="20.97231" ry="33.66191" transform="translate(138.47396 1008.90549) rotate(-72.24862)" fill="#2f2e41"/><path d="M156,679.25a109.21014,109.21014,0,0,0,1.26,16.58,108.123,108.123,0,0,0,37.5,66.31c.55.46,1.11.92,1.68,1.37q1.77,1.42493,3.6,2.77,2.64,1.95,5.4,3.73a108.17446,108.17446,0,0,0,98.47,9.62c.76-.3,1.52-.61,2.27-.93,1.2-.51,2.38-1.04,3.56-1.6q4.485-2.085,8.75-4.59,4.395-2.565,8.5-5.52c1.25-.9,2.46-1.81,3.67-2.76l.02-.01a108.29126,108.29126,0,0,0,35.02-48.53v-.01a108.1435,108.1435,0,0,0-43.52-127.44c-.95-.6-1.91-1.2-2.88-1.76-1-.62-2.02-1.2-3.05-1.76a107.09114,107.09114,0,0,0-45.08-13.23q-3.555-.24-7.17-.24c-.12,0-.24,0-.36.01q-4.86,0-9.6.45A107.99768,107.99768,0,0,0,156,679.25Z" transform="translate(-156 -112.75)" fill="#3f3d56"/><path d="M375.31152,716.33854s31.54248-32.59389,39.95381-12.617-31.54248,30.49107-31.54248,30.49107Z" transform="translate(-156 -112.75)" fill="#ffb8b8"/><path d="M196.44,763.51q1.77,1.42493,3.6,2.77,2.64,1.95,5.4,3.73a108.17446,108.17446,0,0,0,98.47,9.62c.76-.3,1.52-.61,2.27-.93,1.2-.51,2.38-1.04,3.56-1.6l-2.77-3.98a30.99509,30.99509,0,0,0-6.68994-4.77c-18.95-10.29-54.64-9.97-78.79-8.28-3.44.24-6.64.51-9.52.78-1.8.16-3.48.33-5.01.49-.62.07-1.21.13-1.77.19-5.39.6-8.62,1.07-8.62,1.07Z" transform="translate(-156 -112.75)" fill="#2f2e41"/><circle cx="133.11863" cy="474.75186" r="30.21482" fill="#ffb8b8"/><path d="M269.1185,597.52853l-22.07973,23.13116-6.3085,35.74814,55.725,9.46274-4.20566-32.59389s1.05141-15.77124,5.25708-18.92549S269.1185,597.52853,269.1185,597.52853Z" transform="translate(-156 -112.75)" fill="#ffb8b8"/><path d="M329.04922,662.71633" transform="translate(-156 -112.75)" fill="none" stroke="lime" stroke-miterlimit="10"/><path d="M203.93,765.76a56.693,56.693,0,0,1,5.61-1.49,83.95916,83.95916,0,0,1,14.49-1.85,70.69573,70.69573,0,0,1,33.52,6.49c15.32,7.35,33.5,9.35,46,9.73.91.03,1.79.05,2.63.06,1.2-.51,2.38-1.04,3.56-1.6q4.485-2.085,8.75-4.59l-.04-3.7-.66-73.2v-.01l-.31-34.99-19.97-23.13-5.13-5.78-2.44,2.19-14.51,13.06-21.15-19.59-7.24-6.7L212.31,737.57,207.83,752.65l-2.64,8.88-.41,1.36v.01Z" transform="translate(-156 -112.75)" fill="#575a89"/><path d="M284.62,663.86a105.86379,105.86379,0,0,0,1.32,15.68c3.6,22.99,6.69,61.21,14.34,88.81,1,3.64,2.09,7.08,3.27,10.29l.36.99c.76-.3,1.52-.61,2.27-.93,1.2-.51,2.38-1.04,3.56-1.6q4.485-2.085,8.75-4.59,4.395-2.565,8.5-5.52l-.32-1.26v-.01l-4.98-19.94s3.2-16.69,5.76-35.36v-.01c2.94-21.37,5.04-45.31.55-49.8l-35.23-32.23-.01.01a35.60943,35.60943,0,0,0-2.82,5.5C287.54,639.58,284.5,649.62,284.62,663.86Z" transform="translate(-156 -112.75)" fill="#d0cde1"/><path d="M175.01,740.45a108.01862,108.01862,0,0,0,19.75,21.69c.55.46,1.11.92,1.68,1.37q1.77,1.42493,3.6,2.77,2.64,1.95,5.4,3.73c1.36-1.89,2.73-3.81,4.1-5.74q1.215-1.69493,2.43-3.42c1.28-1.82,2.56006-3.65,3.82-5.49.16-.22.31-.44.46-.66,1.6-2.31,3.18-4.63,4.72-6.94C232.33,730.79,241.75,714.5,242.83,704.77c1.3-11.65,3.93-29.67,6.6-46.88,1.72-11.18,3.46-22.02,4.85-30.53,1.68-10.34,2.84-17.26,2.84-17.26s-55.1-5.51-62.82-.1h-.01a1.80766,1.80766,0,0,0-.87,1.2c-.84,5.86,3.66,60.31995,5.52,82.31995v.01c.48,5.64.79,9.14.79,9.14s-3.15,4.21-7.77,10.96C187.25,720.52,181,730.05,175.01,740.45Z" transform="translate(-156 -112.75)" fill="#d0cde1"/><path d="M324.84355,690.05314l5.25708,41.00523,46.26231-19.97691,14.71982,30.49107-75.702,28.38823S301.7124,697.41305,324.84355,690.05314Z" transform="translate(-156 -112.75)" fill="#d0cde1"/><path d="M319.30661,593.0309s4.10587-4.4338,3.6903-9.9844a31.64955,31.64955,0,0,1,.59915-9.43555s-1.28506-9.08487-3.18256-14.35084-.29789-7.09858-8.4545-9.97347-2.964-13.27122-27.01212-4.9847a6.57874,6.57874,0,0,1-7.155,1.464c-4.43978-1.626-7.11535,4.47347-7.11535,4.47347s-2.76932-2.2721-4.32327.09011-9.06953-3.02177-11.82544,14.16328,6.70506,32.51,6.70506,32.51,1.3275-27.50017,16.94533-27.99871,33.27954-6.4144,35.47012,5.166A84.52179,84.52179,0,0,0,319.30661,593.0309Z" transform="translate(-156 -112.75)" fill="#2f2e41"/><path d="M194.76,762.14c.55.46,1.11.92,1.68,1.37q1.77,1.42493,3.6,2.77,2.64,1.95,5.4,3.73a107.28866,107.28866,0,0,0,28.66,13.04c2.48-6.36-3.46-14.27-10.06995-20.63-.84-.81-1.7-1.6-2.54-2.35-2-1.77-3.97-3.37-5.7-4.71-.08-.06-.15-.11-.22-.17-3.27-2.52-5.64-4.07-5.64-4.07l-2.1,1.53Z" transform="translate(-156 -112.75)" fill="#ffb8b8"/><path d="M157.26,695.83a108.123,108.123,0,0,0,37.5,66.31c.55.46,1.11.92,1.68,1.37q1.77,1.42493,3.6,2.77l4.74-3.38v-.01l2.18-1.55,8.61-6.15.68-.49,6.61-4.72-1.89-2.22-8.66-10.19-20.35-23.94-4.85-5.7,11.83-14.4v-.01l12.35-15.03L200.78,611.2a11.17871,11.17871,0,0,0-6.48-1.2h-.01c-2.38.41-4.81,2.05-6.13,6.45C185.77,624.42,166.47,672.85,157.26,695.83Z" transform="translate(-156 -112.75)" fill="#d0cde1"/></svg>