<?xml version="1.0" encoding="utf-8"?>
<!-- Generator: Adobe Illustrator 21.1.0, SVG Export Plug-In . SVG Version: 6.00 Build 0)  -->
<svg version="1.1" id="Capa_1" xmlns="http://www.w3.org/2000/svg" xmlns:xlink="http://www.w3.org/1999/xlink" x="0px" y="0px"
	 viewBox="0 0 512 512" style="enable-background:new 0 0 512 512;" xml:space="preserve">
<style type="text/css">
	.st0{fill:#286BA4;}
</style>
<g>
	<g>
		<path class="st0" d="M500.9,233c10.1-9.8,13.6-24.2,9.3-37.6c-4.4-13.4-15.7-23-29.6-25l-124-18c-5.3-0.8-9.8-4.1-12.2-8.9
			L288.9,31.2c-6.2-12.6-18.9-20.5-32.9-20.5c-14.1,0-26.7,7.8-32.9,20.5l-55.4,112.3c-2.4,4.8-6.9,8.1-12.2,8.9l-124,18
			c-13.9,2-25.3,11.6-29.6,25c-4.3,13.4-0.8,27.8,9.3,37.6l89.7,87.4c3.8,3.7,5.6,9.1,4.7,14.4L84.3,458.3c-1.9,10.9,1,21.4,8,29.8
			c10.9,13,30,16.9,45.3,8.9l110.9-58.3c4.6-2.4,10.5-2.4,15.1,0L374.4,497c5.4,2.8,11.1,4.3,17.1,4.3c10.8,0,21.1-4.8,28.2-13.2
			c7-8.3,9.9-18.9,8-29.8l-21.2-123.5c-0.9-5.3,0.9-10.6,4.7-14.4L500.9,233z"/>
	</g>
</g>
</svg>
